<mxfile host="drawio-plugin" modified="2022-04-24T11:08:02.905Z" agent="5.0 (Macintosh; Intel Mac OS X 12_3_1) AppleWebKit/537.36 (KHTML, like Gecko) Chrome/89.0.4389.114 Safari/537.36" etag="AX-GAP8aBMbm3lbMqvQg" version="15.5.4" type="embed"><diagram id="R2lEEEUBdFMjLlhIrx00" name="Page-1"><mxGraphModel dx="977" dy="330" grid="1" gridSize="10" guides="1" tooltips="1" connect="1" arrows="1" fold="1" page="1" pageScale="1" pageWidth="850" pageHeight="1100" math="0" shadow="0" extFonts="Permanent Marker^https://fonts.googleapis.com/css?family=Permanent+Marker"><root><mxCell id="0"/><mxCell id="1" parent="0"/><mxCell id="2" value="student" style="rounded=0;whiteSpace=wrap;html=1;" parent="1" vertex="1"><mxGeometry x="100" y="211" width="120" height="60" as="geometry"/></mxCell><mxCell id="3" value="teacher" style="rounded=0;whiteSpace=wrap;html=1;" parent="1" vertex="1"><mxGeometry x="630" y="211" width="120" height="60" as="geometry"/></mxCell><mxCell id="4" value="class" style="rounded=0;whiteSpace=wrap;html=1;" parent="1" vertex="1"><mxGeometry x="720" y="770" width="120" height="60" as="geometry"/></mxCell><mxCell id="6" value="chat room" style="rounded=0;whiteSpace=wrap;html=1;" parent="1" vertex="1"><mxGeometry x="190" y="380" width="120" height="60" as="geometry"/></mxCell><mxCell id="7" value="chat history" style="rounded=0;whiteSpace=wrap;html=1;" parent="1" vertex="1"><mxGeometry x="30" y="500" width="120" height="60" as="geometry"/></mxCell><mxCell id="8" value="course" style="rhombus;whiteSpace=wrap;html=1;" parent="1" vertex="1"><mxGeometry x="340" y="206" width="160" height="70" as="geometry"/></mxCell><mxCell id="9" value="" style="endArrow=none;html=1;rounded=0;entryX=0;entryY=0.5;entryDx=0;entryDy=0;exitX=1;exitY=0.5;exitDx=0;exitDy=0;" parent="1" source="8" target="3" edge="1"><mxGeometry width="50" height="50" relative="1" as="geometry"><mxPoint x="390" y="466" as="sourcePoint"/><mxPoint x="440" y="416" as="targetPoint"/></mxGeometry></mxCell><mxCell id="12" value="m" style="edgeLabel;html=1;align=center;verticalAlign=middle;resizable=0;points=[];" parent="9" vertex="1" connectable="0"><mxGeometry x="-0.0744" y="1" relative="1" as="geometry"><mxPoint as="offset"/></mxGeometry></mxCell><mxCell id="10" value="" style="endArrow=none;html=1;rounded=0;entryX=0;entryY=0.5;entryDx=0;entryDy=0;exitX=1;exitY=0.5;exitDx=0;exitDy=0;" parent="1" source="2" target="8" edge="1"><mxGeometry width="50" height="50" relative="1" as="geometry"><mxPoint x="390" y="466" as="sourcePoint"/><mxPoint x="440" y="416" as="targetPoint"/></mxGeometry></mxCell><mxCell id="14" value="n" style="edgeLabel;html=1;align=center;verticalAlign=middle;resizable=0;points=[];" parent="10" vertex="1" connectable="0"><mxGeometry x="-0.0389" y="1" relative="1" as="geometry"><mxPoint as="offset"/></mxGeometry></mxCell><mxCell id="15" value="college" style="rounded=0;whiteSpace=wrap;html=1;" parent="1" vertex="1"><mxGeometry x="350" y="70" width="120" height="60" as="geometry"/></mxCell><mxCell id="16" value="id" style="rounded=1;whiteSpace=wrap;html=1;" parent="1" vertex="1"><mxGeometry x="320" y="10" width="50" height="30" as="geometry"/></mxCell><mxCell id="17" value="name" style="rounded=1;whiteSpace=wrap;html=1;" parent="1" vertex="1"><mxGeometry x="450" y="10" width="50" height="30" as="geometry"/></mxCell><mxCell id="18" value="" style="endArrow=none;html=1;rounded=0;entryX=0.25;entryY=0;entryDx=0;entryDy=0;exitX=0.5;exitY=1;exitDx=0;exitDy=0;" parent="1" source="16" target="15" edge="1"><mxGeometry width="50" height="50" relative="1" as="geometry"><mxPoint x="410" y="300" as="sourcePoint"/><mxPoint x="460" y="250" as="targetPoint"/></mxGeometry></mxCell><mxCell id="19" value="" style="endArrow=none;html=1;rounded=0;entryX=0.75;entryY=0;entryDx=0;entryDy=0;exitX=0.403;exitY=1.033;exitDx=0;exitDy=0;exitPerimeter=0;" parent="1" source="17" target="15" edge="1"><mxGeometry width="50" height="50" relative="1" as="geometry"><mxPoint x="355" y="50" as="sourcePoint"/><mxPoint x="360" y="80" as="targetPoint"/></mxGeometry></mxCell><mxCell id="20" value="" style="endArrow=none;html=1;rounded=0;exitX=0;exitY=1;exitDx=0;exitDy=0;entryX=1;entryY=0;entryDx=0;entryDy=0;" parent="1" source="15" target="2" edge="1"><mxGeometry width="50" height="50" relative="1" as="geometry"><mxPoint x="355" y="50" as="sourcePoint"/><mxPoint x="220" y="210" as="targetPoint"/></mxGeometry></mxCell><mxCell id="22" value="1" style="edgeLabel;html=1;align=center;verticalAlign=middle;resizable=0;points=[];" parent="20" vertex="1" connectable="0"><mxGeometry x="-0.1405" relative="1" as="geometry"><mxPoint as="offset"/></mxGeometry></mxCell><mxCell id="21" value="" style="endArrow=none;html=1;rounded=0;exitX=1;exitY=1;exitDx=0;exitDy=0;entryX=0;entryY=0;entryDx=0;entryDy=0;" parent="1" source="15" target="3" edge="1"><mxGeometry width="50" height="50" relative="1" as="geometry"><mxPoint x="360" y="140" as="sourcePoint"/><mxPoint x="230" y="225" as="targetPoint"/></mxGeometry></mxCell><mxCell id="23" value="1" style="edgeLabel;html=1;align=center;verticalAlign=middle;resizable=0;points=[];" parent="21" vertex="1" connectable="0"><mxGeometry x="-0.162" relative="1" as="geometry"><mxPoint as="offset"/></mxGeometry></mxCell><mxCell id="24" value="chapter" style="rounded=0;whiteSpace=wrap;html=1;" parent="1" vertex="1"><mxGeometry x="520" y="380" width="120" height="60" as="geometry"/></mxCell><mxCell id="25" value="name" style="rounded=1;whiteSpace=wrap;html=1;" parent="1" vertex="1"><mxGeometry x="90" y="130" width="50" height="30" as="geometry"/></mxCell><mxCell id="26" value="id" style="rounded=1;whiteSpace=wrap;html=1;" parent="1" vertex="1"><mxGeometry x="30" y="130" width="50" height="30" as="geometry"/></mxCell><mxCell id="27" value="number" style="rounded=1;whiteSpace=wrap;html=1;" parent="1" vertex="1"><mxGeometry x="150" y="130" width="50" height="30" as="geometry"/></mxCell><mxCell id="28" value="" style="endArrow=none;html=1;rounded=0;entryX=0.5;entryY=1;entryDx=0;entryDy=0;exitX=1;exitY=0;exitDx=0;exitDy=0;" parent="1" source="6" target="8" edge="1"><mxGeometry width="50" height="50" relative="1" as="geometry"><mxPoint x="410" y="370" as="sourcePoint"/><mxPoint x="460" y="320" as="targetPoint"/></mxGeometry></mxCell><mxCell id="29" value="" style="endArrow=none;html=1;rounded=0;exitX=0;exitY=0;exitDx=0;exitDy=0;" parent="1" source="24" edge="1"><mxGeometry width="50" height="50" relative="1" as="geometry"><mxPoint x="320" y="390" as="sourcePoint"/><mxPoint x="420" y="280" as="targetPoint"/></mxGeometry></mxCell><mxCell id="30" value="id" style="rounded=1;whiteSpace=wrap;html=1;" parent="1" vertex="1"><mxGeometry x="350" y="166" width="50" height="30" as="geometry"/></mxCell><mxCell id="31" value="name" style="rounded=1;whiteSpace=wrap;html=1;" parent="1" vertex="1"><mxGeometry x="440" y="166" width="50" height="30" as="geometry"/></mxCell><mxCell id="33" value="" style="endArrow=none;html=1;rounded=0;exitX=0.5;exitY=1;exitDx=0;exitDy=0;entryX=0.5;entryY=0;entryDx=0;entryDy=0;" parent="1" target="8" edge="1"><mxGeometry width="50" height="50" relative="1" as="geometry"><mxPoint x="375" y="196" as="sourcePoint"/><mxPoint x="390" y="216" as="targetPoint"/></mxGeometry></mxCell><mxCell id="34" value="" style="endArrow=none;html=1;rounded=0;exitX=0.5;exitY=1;exitDx=0;exitDy=0;entryX=0.5;entryY=0;entryDx=0;entryDy=0;" parent="1" target="8" edge="1"><mxGeometry width="50" height="50" relative="1" as="geometry"><mxPoint x="465" y="196" as="sourcePoint"/><mxPoint x="430" y="286" as="targetPoint"/></mxGeometry></mxCell><mxCell id="35" value="id" style="rounded=1;whiteSpace=wrap;html=1;" parent="1" vertex="1"><mxGeometry x="500" y="490" width="50" height="30" as="geometry"/></mxCell><mxCell id="36" value="name" style="rounded=1;whiteSpace=wrap;html=1;" parent="1" vertex="1"><mxGeometry x="570" y="490" width="50" height="30" as="geometry"/></mxCell><mxCell id="37" value="content" style="rounded=1;whiteSpace=wrap;html=1;" parent="1" vertex="1"><mxGeometry x="640" y="490" width="50" height="30" as="geometry"/></mxCell><mxCell id="38" value="pdf_ur;" style="rounded=1;whiteSpace=wrap;html=1;" parent="1" vertex="1"><mxGeometry x="540" y="535" width="50" height="30" as="geometry"/></mxCell><mxCell id="39" value="vedio" style="rounded=1;whiteSpace=wrap;html=1;" parent="1" vertex="1"><mxGeometry x="610" y="535" width="50" height="30" as="geometry"/></mxCell><mxCell id="40" value="id" style="rounded=1;whiteSpace=wrap;html=1;" parent="1" vertex="1"><mxGeometry x="680" y="130" width="50" height="30" as="geometry"/></mxCell><mxCell id="41" value="name" style="rounded=1;whiteSpace=wrap;html=1;" parent="1" vertex="1"><mxGeometry x="780" y="160" width="50" height="30" as="geometry"/></mxCell><mxCell id="42" value="exame" style="rounded=0;whiteSpace=wrap;html=1;" parent="1" vertex="1"><mxGeometry x="360" y="380" width="120" height="60" as="geometry"/></mxCell><mxCell id="43" value="id" style="rounded=1;whiteSpace=wrap;html=1;" parent="1" vertex="1"><mxGeometry x="135" y="330" width="50" height="30" as="geometry"/></mxCell><mxCell id="44" value="" style="endArrow=none;html=1;rounded=0;entryX=0.5;entryY=1;entryDx=0;entryDy=0;exitX=0.5;exitY=0;exitDx=0;exitDy=0;" parent="1" source="42" target="8" edge="1"><mxGeometry width="50" height="50" relative="1" as="geometry"><mxPoint x="320" y="390" as="sourcePoint"/><mxPoint x="425.20000000000005" y="291.81999999999994" as="targetPoint"/></mxGeometry></mxCell><mxCell id="45" value="" style="endArrow=none;html=1;rounded=0;exitX=0.5;exitY=1;exitDx=0;exitDy=0;entryX=0.5;entryY=0;entryDx=0;entryDy=0;" parent="1" source="24" target="35" edge="1"><mxGeometry width="50" height="50" relative="1" as="geometry"><mxPoint x="530" y="390" as="sourcePoint"/><mxPoint x="430" y="290" as="targetPoint"/></mxGeometry></mxCell><mxCell id="46" value="" style="endArrow=none;html=1;rounded=0;exitX=0.5;exitY=1;exitDx=0;exitDy=0;entryX=0.5;entryY=0;entryDx=0;entryDy=0;" parent="1" source="24" target="36" edge="1"><mxGeometry width="50" height="50" relative="1" as="geometry"><mxPoint x="590" y="450" as="sourcePoint"/><mxPoint x="535" y="500" as="targetPoint"/></mxGeometry></mxCell><mxCell id="47" value="" style="endArrow=none;html=1;rounded=0;exitX=0.5;exitY=1;exitDx=0;exitDy=0;entryX=0.5;entryY=0;entryDx=0;entryDy=0;" parent="1" source="24" target="37" edge="1"><mxGeometry width="50" height="50" relative="1" as="geometry"><mxPoint x="590" y="450" as="sourcePoint"/><mxPoint x="605" y="500" as="targetPoint"/></mxGeometry></mxCell><mxCell id="48" value="" style="endArrow=none;html=1;rounded=0;exitX=0.5;exitY=1;exitDx=0;exitDy=0;entryX=0.5;entryY=0;entryDx=0;entryDy=0;" parent="1" source="24" target="38" edge="1"><mxGeometry width="50" height="50" relative="1" as="geometry"><mxPoint x="590" y="450" as="sourcePoint"/><mxPoint x="535" y="500" as="targetPoint"/></mxGeometry></mxCell><mxCell id="49" value="" style="endArrow=none;html=1;rounded=0;exitX=0.5;exitY=1;exitDx=0;exitDy=0;entryX=0.5;entryY=0;entryDx=0;entryDy=0;" parent="1" source="24" target="39" edge="1"><mxGeometry width="50" height="50" relative="1" as="geometry"><mxPoint x="590" y="450" as="sourcePoint"/><mxPoint x="575" y="545" as="targetPoint"/></mxGeometry></mxCell><mxCell id="50" value="" style="endArrow=none;html=1;rounded=0;entryX=0.5;entryY=1;entryDx=0;entryDy=0;exitX=1;exitY=0;exitDx=0;exitDy=0;" parent="1" source="7" target="6" edge="1"><mxGeometry width="50" height="50" relative="1" as="geometry"><mxPoint x="320" y="390" as="sourcePoint"/><mxPoint x="430" y="290" as="targetPoint"/></mxGeometry></mxCell><mxCell id="51" value="m" style="edgeLabel;html=1;align=center;verticalAlign=middle;resizable=0;points=[];" parent="50" vertex="1" connectable="0"><mxGeometry x="-0.0235" relative="1" as="geometry"><mxPoint as="offset"/></mxGeometry></mxCell><mxCell id="53" value="questions" style="rounded=0;whiteSpace=wrap;html=1;" parent="1" vertex="1"><mxGeometry x="350" y="490" width="120" height="60" as="geometry"/></mxCell><mxCell id="54" value="" style="endArrow=none;html=1;rounded=0;entryX=0.5;entryY=1;entryDx=0;entryDy=0;exitX=0.5;exitY=0;exitDx=0;exitDy=0;" parent="1" source="53" target="42" edge="1"><mxGeometry width="50" height="50" relative="1" as="geometry"><mxPoint x="320" y="390" as="sourcePoint"/><mxPoint x="430" y="290" as="targetPoint"/></mxGeometry></mxCell><mxCell id="55" value="answer" style="rounded=1;whiteSpace=wrap;html=1;" parent="1" vertex="1"><mxGeometry x="350" y="590" width="50" height="30" as="geometry"/></mxCell><mxCell id="56" value="id" style="rounded=1;whiteSpace=wrap;html=1;" parent="1" vertex="1"><mxGeometry x="280" y="590" width="50" height="30" as="geometry"/></mxCell><mxCell id="57" value="type" style="rounded=1;whiteSpace=wrap;html=1;" parent="1" vertex="1"><mxGeometry x="420" y="590" width="50" height="30" as="geometry"/></mxCell><mxCell id="58" value="topic" style="rounded=1;whiteSpace=wrap;html=1;" parent="1" vertex="1"><mxGeometry x="490" y="590" width="50" height="30" as="geometry"/></mxCell><mxCell id="59" value="" style="endArrow=none;html=1;rounded=0;entryX=0.5;entryY=1;entryDx=0;entryDy=0;exitX=0.5;exitY=0;exitDx=0;exitDy=0;" parent="1" source="56" target="53" edge="1"><mxGeometry width="50" height="50" relative="1" as="geometry"><mxPoint x="420" y="500" as="sourcePoint"/><mxPoint x="430" y="450" as="targetPoint"/></mxGeometry></mxCell><mxCell id="60" value="" style="endArrow=none;html=1;rounded=0;entryX=0.5;entryY=1;entryDx=0;entryDy=0;exitX=0.5;exitY=0;exitDx=0;exitDy=0;" parent="1" source="55" target="53" edge="1"><mxGeometry width="50" height="50" relative="1" as="geometry"><mxPoint x="315" y="600" as="sourcePoint"/><mxPoint x="420" y="560" as="targetPoint"/></mxGeometry></mxCell><mxCell id="61" value="" style="endArrow=none;html=1;rounded=0;entryX=0.5;entryY=1;entryDx=0;entryDy=0;exitX=0.5;exitY=0;exitDx=0;exitDy=0;" parent="1" source="57" target="53" edge="1"><mxGeometry width="50" height="50" relative="1" as="geometry"><mxPoint x="385" y="600" as="sourcePoint"/><mxPoint x="420" y="560" as="targetPoint"/></mxGeometry></mxCell><mxCell id="62" value="" style="endArrow=none;html=1;rounded=0;exitX=0.5;exitY=0;exitDx=0;exitDy=0;" parent="1" source="58" edge="1"><mxGeometry width="50" height="50" relative="1" as="geometry"><mxPoint x="455" y="600" as="sourcePoint"/><mxPoint x="410" y="550" as="targetPoint"/></mxGeometry></mxCell></root></mxGraphModel></diagram></mxfile>